ffmpeg started on 2025-06-05 at 19:03:08
Report written to "D:\Convert\FFMetrics\reports\ssim_report-6.txt"
Log level: 32
Command line:
ffmpeg -hide_banner -nostdin -i "G:\\\xc0\xed\xe8\xec\xe5\\\xce\xed\xe3\xee\xe8\xed\xe3\xe8\\!_36_\xce\xf1\xe5\xed\xfc_2024\\DreamCast\\\xca\xee\xec\xef\xe0\xed\xe8\xff \xab\xcc\xe0\xe3\xe8-\xcb\xfe\xec\xfc\xe5\xf0\xbb\\[DC] Kabushikigaisha Magilumiere - 03_Telegram_HEVC.mkv" -i "G:\\\xc0\xed\xe8\xec\xe5\\\xce\xed\xe3\xee\xe8\xed\xe3\xe8\\!_36_\xce\xf1\xe5\xed\xfc_2024\\DreamCast\\\xca\xee\xec\xef\xe0\xed\xe8\xff \xab\xcc\xe0\xe3\xe8-\xcb\xfe\xec\xfc\xe5\xf0\xbb\\[DC] Kabushikigaisha Magilumiere - 03_Telegram.mp4" -lavfi "[0:v]settb=AVTB,setpts=PTS-STARTPTS,format=pix_fmts=yuv420p10,fps=24000/1001,scale=1920:1080:flags=bicubic[main];[1:v]settb=AVTB,setpts=PTS-STARTPTS,format=pix_fmts=yuv420p,fps=24000/1001,scale=1920:1080:flags=bicubic[ref];[main][ref]ssim=eof_action=endall:stats_file='D\\:/Convert/FFMetrics/logs/ssim_logfile-6.txt'" -f null -
Input #0, matroska,webm, from 'G:\Аниме\Онгоинги\!_36_Осень_2024\DreamCast\Компания «Маги-Люмьер»\[DC] Kabushikigaisha Magilumiere - 03_Telegram_HEVC.mkv':
  Metadata:
    COMPATIBLE_BRANDS: isomiso2avc1mp41
    MAJOR_BRAND     : isom
    MINOR_VERSION   : 512
    ENCODER         : Lavf61.7.100
  Duration: 00:24:06.61, start: -0.021000, bitrate: 1825 kb/s
  Stream #0:0: Video: hevc (Main 10), yuv420p10le(tv, bt709, progressive), 1920x1080 [SAR 1:1 DAR 16:9], 23.98 fps, 23.98 tbr, 1k tbn (default)
      Metadata:
        HANDLER_NAME    : VideoHandler
        VENDOR_ID       : [0][0][0][0]
        ENCODER         : Lavc61.19.100 libx265
        BPS             : 1628010
        DURATION        : 00:24:06.528708333
        NUMBER_OF_FRAMES: 34682
        NUMBER_OF_BYTES : 294370295
        _STATISTICS_WRITING_APP: mkvpropedit v66.0.0 ('Josie') 64-bit
        _STATISTICS_WRITING_DATE_UTC: 2025-05-30 17:21:39
        _STATISTICS_TAGS: BPS DURATION NUMBER_OF_FRAMES NUMBER_OF_BYTES
  Stream #0:1: Audio: aac (LC), 48000 Hz, stereo, fltp (default)
      Metadata:
        HANDLER_NAME    : SoundHandler
        VENDOR_ID       : [0][0][0][0]
        ENCODER         : Lavc61.19.100 aac
        BPS             : 193641
        DURATION        : 00:24:06.613000000
        NUMBER_OF_FRAMES: 67811
        NUMBER_OF_BYTES : 35015577
        _STATISTICS_WRITING_APP: mkvpropedit v66.0.0 ('Josie') 64-bit
        _STATISTICS_WRITING_DATE_UTC: 2025-05-30 17:21:39
        _STATISTICS_TAGS: BPS DURATION NUMBER_OF_FRAMES NUMBER_OF_BYTES
Input #1, mov,mp4,m4a,3gp,3g2,mj2, from 'G:\Аниме\Онгоинги\!_36_Осень_2024\DreamCast\Компания «Маги-Люмьер»\[DC] Kabushikigaisha Magilumiere - 03_Telegram.mp4':
  Metadata:
    major_brand     : isom
    minor_version   : 512
    compatible_brands: isomiso2avc1mp41
    encoder         : Lavf61.1.100
  Duration: 00:24:06.59, start: 0.000000, bitrate: 3533 kb/s
  Stream #1:0[0x1](und): Video: h264 (High) (avc1 / 0x31637661), yuv420p(tv, bt709, progressive), 1920x1080 [SAR 1:1 DAR 16:9], 3385 kb/s, 23.98 fps, 23.98 tbr, 24k tbn (default)
      Metadata:
        handler_name    : VideoHandler
        vendor_id       : [0][0][0][0]
        encoder         : Lavc61.3.100 h264_qsv
  Stream #1:1[0x2](und): Audio: aac (HE-AACv2) (mp4a / 0x6134706D), 48000 Hz, stereo, fltp, 144 kb/s (default)
      Metadata:
        handler_name    : SoundHandler
        vendor_id       : [0][0][0][0]
Stream mapping:
  Stream #0:0 (hevc) -> settb:default
  Stream #1:0 (h264) -> settb:default
  ssim:default -> Stream #0:0 (wrapped_avframe)
  Stream #0:1 -> #0:1 (aac (native) -> pcm_s16le (native))
Output #0, null, to 'pipe:':
  Metadata:
    COMPATIBLE_BRANDS: isomiso2avc1mp41
    MAJOR_BRAND     : isom
    MINOR_VERSION   : 512
    encoder         : Lavf61.7.100
  Stream #0:0: Video: wrapped_avframe, yuv420p10le(tv, bt709, progressive), 1920x1080 [SAR 1:1 DAR 16:9], q=2-31, 200 kb/s, 23.98 fps, 23.98 tbn
      Metadata:
        encoder         : Lavc61.19.100 wrapped_avframe
  Stream #0:1: Audio: pcm_s16le, 48000 Hz, stereo, s16, 1536 kb/s (default)
      Metadata:
        HANDLER_NAME    : SoundHandler
        VENDOR_ID       : [0][0][0][0]
        _STATISTICS_TAGS: BPS DURATION NUMBER_OF_FRAMES NUMBER_OF_BYTES
        BPS             : 193641
        DURATION        : 00:24:06.613000000
        NUMBER_OF_FRAMES: 67811
        NUMBER_OF_BYTES : 35015577
        _STATISTICS_WRITING_APP: mkvpropedit v66.0.0 ('Josie') 64-bit
        _STATISTICS_WRITING_DATE_UTC: 2025-05-30 17:21:39
        encoder         : Lavc61.19.100 pcm_s16le
frame=  175 fps=0.0 q=-0.0 size=N/A time=00:00:07.29 bitrate=N/A speed=14.5x    frame=  348 fps=338 q=-0.0 size=N/A time=00:00:14.51 bitrate=N/A speed=14.1x    frame=  542 fps=350 q=-0.0 size=N/A time=00:00:22.60 bitrate=N/A speed=14.6x    frame=  677 fps=329 q=-0.0 size=N/A time=00:00:28.23 bitrate=N/A speed=13.7x    frame=  862 fps=336 q=-0.0 size=N/A time=00:00:35.95 bitrate=N/A speed=  14x    frame= 1078 fps=349 q=-0.0 size=N/A time=00:00:44.96 bitrate=N/A speed=14.5x    frame= 1269 fps=353 q=-0.0 size=N/A time=00:00:52.92 bitrate=N/A speed=14.7x    frame= 1477 fps=359 q=-0.0 size=N/A time=00:01:01.60 bitrate=N/A speed=  15x    frame= 1636 fps=352 q=-0.0 size=N/A time=00:01:08.23 bitrate=N/A speed=14.7x    frame= 1777 fps=345 q=-0.0 size=N/A time=00:01:14.11 bitrate=N/A speed=14.4x    frame= 1953 fps=344 q=-0.0 size=N/A time=00:01:21.45 bitrate=N/A speed=14.4x    frame= 2161 fps=349 q=-0.0 size=N/A time=00:01:30.13 bitrate=N/A speed=14.5x    frame= 2367 fps=352 q=-0.0 size=N/A time=00:01:38.72 bitrate=N/A speed=14.7x    frame= 2621 fps=362 q=-0.0 size=N/A time=00:01:49.31 bitrate=N/A speed=15.1x    frame= 2876 fps=370 q=-0.0 size=N/A time=00:01:59.95 bitrate=N/A speed=15.4x    frame= 3145 fps=379 q=-0.0 size=N/A time=00:02:11.17 bitrate=N/A speed=15.8x    frame= 3393 fps=385 q=-0.0 size=N/A time=00:02:21.51 bitrate=N/A speed=16.1x    frame= 3640 fps=390 q=-0.0 size=N/A time=00:02:31.81 bitrate=N/A speed=16.3x    frame= 3881 fps=395 q=-0.0 size=N/A time=00:02:41.87 bitrate=N/A speed=16.5x    frame= 4132 fps=399 q=-0.0 size=N/A time=00:02:52.33 bitrate=N/A speed=16.6x    frame= 4378 fps=402 q=-0.0 size=N/A time=00:03:02.59 bitrate=N/A speed=16.8x    frame= 4643 fps=408 q=-0.0 size=N/A time=00:03:13.65 bitrate=N/A speed=  17x    frame= 4929 fps=414 q=-0.0 size=N/A time=00:03:25.58 bitrate=N/A speed=17.3x    frame= 5199 fps=419 q=-0.0 size=N/A time=00:03:36.84 bitrate=N/A speed=17.5x    frame= 5454 fps=421 q=-0.0 size=N/A time=00:03:47.47 bitrate=N/A speed=17.6x    frame= 5722 fps=425 q=-0.0 size=N/A time=00:03:58.65 bitrate=N/A speed=17.7x    frame= 5895 fps=421 q=-0.0 size=N/A time=00:04:05.87 bitrate=N/A speed=17.6x    frame= 6098 fps=421 q=-0.0 size=N/A time=00:04:14.33 bitrate=N/A speed=17.5x    frame= 6317 fps=421 q=-0.0 size=N/A time=00:04:23.47 bitrate=N/A speed=17.5x    frame= 6526 fps=420 q=-0.0 size=N/A time=00:04:32.18 bitrate=N/A speed=17.5x    frame= 6679 fps=416 q=-0.0 size=N/A time=00:04:38.56 bitrate=N/A speed=17.4x    frame= 6857 fps=414 q=-0.0 size=N/A time=00:04:45.99 bitrate=N/A speed=17.3x    frame= 7044 fps=413 q=-0.0 size=N/A time=00:04:53.79 bitrate=N/A speed=17.2x    frame= 7274 fps=413 q=-0.0 size=N/A time=00:05:03.38 bitrate=N/A speed=17.2x    frame= 7461 fps=412 q=-0.0 size=N/A time=00:05:11.18 bitrate=N/A speed=17.2x    frame= 7706 fps=414 q=-0.0 size=N/A time=00:05:21.40 bitrate=N/A speed=17.3x    frame= 7921 fps=414 q=-0.0 size=N/A time=00:05:30.37 bitrate=N/A speed=17.3x    frame= 8134 fps=414 q=-0.0 size=N/A time=00:05:39.25 bitrate=N/A speed=17.3x    frame= 8313 fps=412 q=-0.0 size=N/A time=00:05:46.72 bitrate=N/A speed=17.2x    frame= 8526 fps=412 q=-0.0 size=N/A time=00:05:55.60 bitrate=N/A speed=17.2x    frame= 8743 fps=413 q=-0.0 size=N/A time=00:06:04.65 bitrate=N/A speed=17.2x    frame= 8991 fps=414 q=-0.0 size=N/A time=00:06:14.99 bitrate=N/A speed=17.3x    frame= 9255 fps=416 q=-0.0 size=N/A time=00:06:26.01 bitrate=N/A speed=17.4x    frame= 9518 fps=418 q=-0.0 size=N/A time=00:06:36.97 bitrate=N/A speed=17.4x    frame= 9741 fps=419 q=-0.0 size=N/A time=00:06:46.28 bitrate=N/A speed=17.5x    frame= 9966 fps=419 q=-0.0 size=N/A time=00:06:55.66 bitrate=N/A speed=17.5x    frame=10181 fps=419 q=-0.0 size=N/A time=00:07:04.63 bitrate=N/A speed=17.5x    frame=10380 fps=418 q=-0.0 size=N/A time=00:07:12.93 bitrate=N/A speed=17.5x    frame=10635 fps=420 q=-0.0 size=N/A time=00:07:23.56 bitrate=N/A speed=17.5x    frame=10845 fps=420 q=-0.0 size=N/A time=00:07:32.32 bitrate=N/A speed=17.5x    frame=11098 fps=421 q=-0.0 size=N/A time=00:07:42.87 bitrate=N/A speed=17.6x    frame=11343 fps=422 q=-0.0 size=N/A time=00:07:53.09 bitrate=N/A speed=17.6x    frame=11607 fps=424 q=-0.0 size=N/A time=00:08:04.10 bitrate=N/A speed=17.7x    frame=11844 fps=424 q=-0.0 size=N/A time=00:08:13.99 bitrate=N/A speed=17.7x    frame=12072 fps=425 q=-0.0 size=N/A time=00:08:23.50 bitrate=N/A speed=17.7x    frame=12297 fps=425 q=-0.0 size=N/A time=00:08:32.88 bitrate=N/A speed=17.7x    frame=12567 fps=427 q=-0.0 size=N/A time=00:08:44.14 bitrate=N/A speed=17.8x    frame=12827 fps=428 q=-0.0 size=N/A time=00:08:54.99 bitrate=N/A speed=17.9x    frame=13101 fps=430 q=-0.0 size=N/A time=00:09:06.42 bitrate=N/A speed=17.9x    frame=13352 fps=431 q=-0.0 size=N/A time=00:09:16.88 bitrate=N/A speed=  18x    frame=13576 fps=431 q=-0.0 size=N/A time=00:09:26.23 bitrate=N/A speed=  18x    frame=13828 fps=432 q=-0.0 size=N/A time=00:09:36.74 bitrate=N/A speed=  18x    frame=14100 fps=433 q=-0.0 size=N/A time=00:09:48.08 bitrate=N/A speed=18.1x    frame=14362 fps=434 q=-0.0 size=N/A time=00:09:59.01 bitrate=N/A speed=18.1x    frame=14628 fps=436 q=-0.0 size=N/A time=00:10:10.10 bitrate=N/A speed=18.2x    frame=14893 fps=437 q=-0.0 size=N/A time=00:10:21.16 bitrate=N/A speed=18.2x    frame=15151 fps=438 q=-0.0 size=N/A time=00:10:31.92 bitrate=N/A speed=18.3x    frame=15437 fps=439 q=-0.0 size=N/A time=00:10:43.85 bitrate=N/A speed=18.3x    frame=15716 fps=441 q=-0.0 size=N/A time=00:10:55.48 bitrate=N/A speed=18.4x    frame=15989 fps=442 q=-0.0 size=N/A time=00:11:06.87 bitrate=N/A speed=18.4x    frame=16228 fps=443 q=-0.0 size=N/A time=00:11:16.84 bitrate=N/A speed=18.5x    frame=16475 fps=443 q=-0.0 size=N/A time=00:11:27.14 bitrate=N/A speed=18.5x    frame=16714 fps=443 q=-0.0 size=N/A time=00:11:37.11 bitrate=N/A speed=18.5x    frame=16982 fps=444 q=-0.0 size=N/A time=00:11:48.29 bitrate=N/A speed=18.5x    frame=17256 fps=446 q=-0.0 size=N/A time=00:11:59.71 bitrate=N/A speed=18.6x    frame=17514 fps=446 q=-0.0 size=N/A time=00:12:10.52 bitrate=N/A speed=18.6x    frame=17795 fps=448 q=-0.0 size=N/A time=00:12:22.19 bitrate=N/A speed=18.7x    frame=18070 fps=449 q=-0.0 size=N/A time=00:12:33.66 bitrate=N/A speed=18.7x    frame=18323 fps=449 q=-0.0 size=N/A time=00:12:44.22 bitrate=N/A speed=18.7x    frame=18586 fps=450 q=-0.0 size=N/A time=00:12:55.19 bitrate=N/A speed=18.8x    frame=18838 fps=450 q=-0.0 size=N/A time=00:13:05.70 bitrate=N/A speed=18.8x    frame=18977 fps=448 q=-0.0 size=N/A time=00:13:11.49 bitrate=N/A speed=18.7x    frame=19126 fps=446 q=-0.0 size=N/A time=00:13:17.71 bitrate=N/A speed=18.6x    frame=19289 fps=445 q=-0.0 size=N/A time=00:13:24.51 bitrate=N/A speed=18.5x    frame=19453 fps=443 q=-0.0 size=N/A time=00:13:31.35 bitrate=N/A speed=18.5x    frame=19621 fps=441 q=-0.0 size=N/A time=00:13:38.35 bitrate=N/A speed=18.4x    frame=19784 fps=440 q=-0.0 size=N/A time=00:13:45.15 bitrate=N/A speed=18.4x    frame=19941 fps=438 q=-0.0 size=N/A time=00:13:51.70 bitrate=N/A speed=18.3x    frame=20093 fps=437 q=-0.0 size=N/A time=00:13:58.04 bitrate=N/A speed=18.2x    frame=20268 fps=436 q=-0.0 size=N/A time=00:14:05.34 bitrate=N/A speed=18.2x    frame=20456 fps=435 q=-0.0 size=N/A time=00:14:13.18 bitrate=N/A speed=18.1x    frame=20658 fps=435 q=-0.0 size=N/A time=00:14:21.61 bitrate=N/A speed=18.1x    frame=20833 fps=434 q=-0.0 size=N/A time=00:14:28.90 bitrate=N/A speed=18.1x    frame=21009 fps=433 q=-0.0 size=N/A time=00:14:36.25 bitrate=N/A speed=  18x    frame=21187 fps=432 q=-0.0 size=N/A time=00:14:43.67 bitrate=N/A speed=  18x    frame=21368 fps=431 q=-0.0 size=N/A time=00:14:51.22 bitrate=N/A speed=  18x    frame=21541 fps=430 q=-0.0 size=N/A time=00:14:58.43 bitrate=N/A speed=17.9x    frame=21738 fps=429 q=-0.0 size=N/A time=00:15:06.65 bitrate=N/A speed=17.9x    frame=21966 fps=429 q=-0.0 size=N/A time=00:15:16.16 bitrate=N/A speed=17.9x    frame=22150 fps=429 q=-0.0 size=N/A time=00:15:23.83 bitrate=N/A speed=17.9x    frame=22391 fps=429 q=-0.0 size=N/A time=00:15:33.89 bitrate=N/A speed=17.9x    frame=22597 fps=429 q=-0.0 size=N/A time=00:15:42.48 bitrate=N/A speed=17.9x    frame=22812 fps=429 q=-0.0 size=N/A time=00:15:51.45 bitrate=N/A speed=17.9x    frame=22994 fps=428 q=-0.0 size=N/A time=00:15:59.04 bitrate=N/A speed=17.9x    frame=23260 fps=429 q=-0.0 size=N/A time=00:16:10.13 bitrate=N/A speed=17.9x    frame=23537 fps=430 q=-0.0 size=N/A time=00:16:21.68 bitrate=N/A speed=17.9x    frame=23826 fps=431 q=-0.0 size=N/A time=00:16:33.74 bitrate=N/A speed=  18x    frame=24057 fps=431 q=-0.0 size=N/A time=00:16:43.37 bitrate=N/A speed=  18x    frame=24271 fps=431 q=-0.0 size=N/A time=00:16:52.30 bitrate=N/A speed=  18x    frame=24474 fps=431 q=-0.0 size=N/A time=00:17:00.76 bitrate=N/A speed=  18x    frame=24732 fps=431 q=-0.0 size=N/A time=00:17:11.53 bitrate=N/A speed=  18x    frame=24924 fps=431 q=-0.0 size=N/A time=00:17:19.53 bitrate=N/A speed=  18x    frame=25104 fps=430 q=-0.0 size=N/A time=00:17:27.04 bitrate=N/A speed=17.9x    frame=25319 fps=430 q=-0.0 size=N/A time=00:17:36.01 bitrate=N/A speed=17.9x    frame=25515 fps=430 q=-0.0 size=N/A time=00:17:44.18 bitrate=N/A speed=17.9x    frame=25733 fps=429 q=-0.0 size=N/A time=00:17:53.28 bitrate=N/A speed=17.9x    frame=25931 fps=429 q=-0.0 size=N/A time=00:18:01.53 bitrate=N/A speed=17.9x    frame=26134 fps=429 q=-0.0 size=N/A time=00:18:10.00 bitrate=N/A speed=17.9x    frame=26307 fps=428 q=-0.0 size=N/A time=00:18:17.22 bitrate=N/A speed=17.9x    frame=26496 fps=427 q=-0.0 size=N/A time=00:18:25.10 bitrate=N/A speed=17.8x    frame=26711 fps=427 q=-0.0 size=N/A time=00:18:34.11 bitrate=N/A speed=17.8x    frame=26916 fps=427 q=-0.0 size=N/A time=00:18:42.62 bitrate=N/A speed=17.8x    frame=27156 fps=427 q=-0.0 size=N/A time=00:18:52.63 bitrate=N/A speed=17.8x    frame=27418 fps=428 q=-0.0 size=N/A time=00:19:03.55 bitrate=N/A speed=17.9x    frame=27683 fps=429 q=-0.0 size=N/A time=00:19:14.61 bitrate=N/A speed=17.9x    frame=27905 fps=429 q=-0.0 size=N/A time=00:19:23.87 bitrate=N/A speed=17.9x    frame=28151 fps=429 q=-0.0 size=N/A time=00:19:34.13 bitrate=N/A speed=17.9x    frame=28345 fps=429 q=-0.0 size=N/A time=00:19:42.22 bitrate=N/A speed=17.9x    frame=28574 fps=429 q=-0.0 size=N/A time=00:19:51.77 bitrate=N/A speed=17.9x    frame=28809 fps=429 q=-0.0 size=N/A time=00:20:01.57 bitrate=N/A speed=17.9x    frame=29047 fps=429 q=-0.0 size=N/A time=00:20:11.50 bitrate=N/A speed=17.9x    frame=29288 fps=430 q=-0.0 size=N/A time=00:20:21.55 bitrate=N/A speed=17.9x    frame=29524 fps=430 q=-0.0 size=N/A time=00:20:31.39 bitrate=N/A speed=17.9x    frame=29762 fps=430 q=-0.0 size=N/A time=00:20:41.32 bitrate=N/A speed=17.9x    frame=30015 fps=430 q=-0.0 size=N/A time=00:20:51.87 bitrate=N/A speed=  18x    frame=30273 fps=431 q=-0.0 size=N/A time=00:21:02.63 bitrate=N/A speed=  18x    frame=30532 fps=432 q=-0.0 size=N/A time=00:21:13.43 bitrate=N/A speed=  18x    frame=30732 fps=431 q=-0.0 size=N/A time=00:21:21.78 bitrate=N/A speed=  18x    frame=30946 fps=431 q=-0.0 size=N/A time=00:21:30.70 bitrate=N/A speed=  18x    frame=31175 fps=431 q=-0.0 size=N/A time=00:21:40.25 bitrate=N/A speed=  18x    frame=31375 fps=431 q=-0.0 size=N/A time=00:21:48.59 bitrate=N/A speed=  18x    frame=31506 fps=430 q=-0.0 size=N/A time=00:21:54.06 bitrate=N/A speed=17.9x    frame=31711 fps=429 q=-0.0 size=N/A time=00:22:02.61 bitrate=N/A speed=17.9x    frame=31923 fps=429 q=-0.0 size=N/A time=00:22:11.45 bitrate=N/A speed=17.9x    frame=32090 fps=429 q=-0.0 size=N/A time=00:22:18.42 bitrate=N/A speed=17.9x    frame=32204 fps=427 q=-0.0 size=N/A time=00:22:23.17 bitrate=N/A speed=17.8x    frame=32370 fps=426 q=-0.0 size=N/A time=00:22:30.09 bitrate=N/A speed=17.8x    frame=32565 fps=426 q=-0.0 size=N/A time=00:22:38.23 bitrate=N/A speed=17.8x    frame=32824 fps=427 q=-0.0 size=N/A time=00:22:49.03 bitrate=N/A speed=17.8x    frame=33083 fps=427 q=-0.0 size=N/A time=00:22:59.83 bitrate=N/A speed=17.8x    frame=33339 fps=428 q=-0.0 size=N/A time=00:23:10.51 bitrate=N/A speed=17.8x    frame=33600 fps=428 q=-0.0 size=N/A time=00:23:21.40 bitrate=N/A speed=17.9x    frame=33846 fps=428 q=-0.0 size=N/A time=00:23:31.66 bitrate=N/A speed=17.9x    frame=34103 fps=429 q=-0.0 size=N/A time=00:23:42.37 bitrate=N/A speed=17.9x    frame=34359 fps=429 q=-0.0 size=N/A time=00:23:53.05 bitrate=N/A speed=17.9x    frame=34608 fps=430 q=-0.0 size=N/A time=00:24:03.44 bitrate=N/A speed=17.9x    [Parsed_ssim_10 @ 000001ac140d8480] SSIM Y:0.994390 (22.510469) U:0.993634 (21.961557) V:0.993536 (21.894845) All:0.994122 (22.307535)
[out#0/null @ 000001ac117a4780] video:14902KiB audio:271244KiB subtitle:0KiB other streams:0KiB global headers:0KiB muxing overhead: unknown
frame=34682 fps=430 q=-0.0 Lsize=N/A time=00:24:06.52 bitrate=N/A speed=17.9x    
